inDegrees=yes
name=ik_l_comf_01-000_orientations
DataType=double
version=3
OpenSimVersion=4.5.1-2024-10-23-33f3f5902
endheader
time	pelvis_tilt	pelvis_list	pelvis_rotation	pelvis_tx	pelvis_ty	pelvis_tz	hip_flexion_r	hip_adduction_r	hip_rotation_r	knee_angle_r	ankle_angle_r	subtalar_angle_r	mtp_angle_r	hip_flexion_l	hip_adduction_l	hip_rotation_l	knee_angle_l	ankle_angle_l	subtalar_angle_l	mtp_angle_l	lumbar_extension	lumbar_bending	lumbar_rotation
18.22500000000003	4.032622872005854	-2.187326387984807	-26.99164134223074	0	0.95	0	-11.23967791852864	4.862437290114125	7.49676532728838	-2.521129679813773	4.764880294565402	-1.27709743982944	0	22.48640951486502	2.150122084133343	-8.755898727968075	-1.983757459444884	-7.678530126015626	5.500166883569752	0	0	0	0
18.25000000000003	3.927580954465308	-2.314347054905417	-27.62736596792507	0	0.95	0	-11.76429069059875	4.951069085234192	8.160233562060647	-3.311491725389895	5.312814749032515	-0.8411847674389932	0	22.16683438523583	2.170527827194415	-9.082062370542447	-0.1366082203581075	-8.023103394792606	6.310099420784442	0	0	0	0
18.27500000000003	3.844895208109393	-2.428480220183356	-28.19621574961149	0	0.95	0	-12.29084582332707	5.050492123277019	8.750900165308053	-4.237560988647389	5.904252414501151	-0.2734049097065014	0	21.80918542024568	2.182637693125438	-9.078108060047448	1.342440399456289	-8.386281512275625	6.950151933207961	0	0	0	0
18.30000000000003	3.814025245066118	-2.530681779221025	-28.63007735606603	0	0.95	0	-12.81318517705252	5.146720532900824	9.171379865849755	-5.314397681604962	6.55713347913465	0.5061177551265753	0	21.71256037003631	2.180787019714379	-8.748053822982156	2.073868901760676	-8.837843357170449	7.210894065576347	0	0	0	0
18.32500000000003	3.77002359095199	-2.515551822649732	-28.96235467848937	0	0.95	0	-13.20655122834785	5.168769656932458	9.359442024802068	-6.553704883499516	7.175441211756711	1.544397480038179	0	22.36529367879633	2.245279973137522	-8.32830434237399	1.40500564195362	-9.054485644884478	7.289562672073651	0	0	0	0
18.35000000000003	3.715117019207421	-2.425641570015459	-29.21565240101028	0	0.95	0	-13.46717968478815	5.150974667729546	9.374785703882193	-7.936589275598774	7.832013318905366	2.923388833047523	0	23.29680221068243	2.418063690608188	-7.998726614098709	-0.1465247731968356	-9.17813980594558	7.313402001436859	0	0	0	0
18.37500000000002	3.65405438177415	-2.294241530406935	-29.48145908868308	0	0.95	0	-13.60312966224239	5.105494780125891	9.252910043061533	-9.587048118746502	8.474135222422895	4.624768989149833	0	23.98566353237399	2.588529741290344	-7.860214886564575	-1.990316757625239	-9.197920970111175	7.424286835895024	0	0	0	0
18.40000000000002	3.628671370916309	-2.162395097055995	-29.67868836764466	0	0.95	0	-13.57811300777494	5.043191134518392	8.959416047277058	-11.5369508705559	9.050721262455799	6.590589537266394	0	24.36065215726266	2.745453160267875	-7.757437744005853	-3.914195103400045	-9.1041266248564	7.433843017153675	0	0	0	0
18.42500000000002	3.692281373649972	-2.081632344898086	-29.8363981715948	0	0.95	0	-13.51468586526654	5.007380165965214	8.413319669695076	-13.75276769893472	9.423100439734553	8.836252385567455	0	24.27806836103266	2.668830314929108	-7.552731141328938	-5.086384944540534	-10.09641862766843	7.237184439922241	0	0	0	0
18.45000000000002	3.926896597861868	-2.029251959265818	-29.88440973751486	0	0.95	0	-13.41084353250716	4.886435766936478	7.582314656059337	-16.26306063899187	9.638938001060909	11.45047780843988	0	23.82309288603026	2.583191181259278	-7.947915721841956	-5.517849610082857	-15.60082241016982	5.187775714116984	0	0	0	0
18.47500000000002	4.332999110596523	-2.049201595203723	-30.05966250647631	0	0.95	0	-13.45392835866121	4.611577958724746	6.799814184414819	-18.89903973487763	9.37287888318196	14.6299835048102	0	22.65954564514533	3.108157426425151	-6.198026562121315	-6.314830998921513	-15.54480196697348	3.154379661583997	0	0	0	0
18.50000000000002	4.898734346384816	-1.973511330384435	-30.14653648376553	0	0.95	0	-13.29609237857957	4.132579979029867	5.678232348749599	-21.92839066045901	8.692013609607791	18.47804813476237	0	20.80180487388597	3.271534106237468	-5.212693454572501	-6.968653598541055	-17.68669801602085	1.584948586359864	0	0	0	0
18.52500000000002	5.602209686661564	-1.773896033944653	-30.14195710302124	0	0.95	0	-12.89783193415741	3.393944322062193	4.404121230281141	-25.28307242653118	7.380394720870279	22.55666787441355	0	19.2087967434824	3.719705947287556	-3.36929721203895	-7.835177506847712	-16.25738441576724	1.329971184597564	0	0	0	0
18.55000000000001	6.257462527734548	-1.564994377506687	-30.14088942937326	0	0.95	0	-12.28318213545199	2.686308494007466	3.439330058037661	-28.80563419921365	4.646300237560978	26.28326258776458	0	18.04073380793421	4.657600152141138	-3.217785137954333	-8.909258089491177	-14.58819398978331	0.4589323918813172	0	0	0	0
18.57500000000001	6.836743967405522	-1.274017858750261	-30.09091389655996	0	0.95	0	-11.42754258023211	2.180640831588964	2.837617531322865	-32.28119417552163	1.412494447255113	29.27989927162377	0	17.47998231890976	5.520888676313739	-2.396594298333016	-10.88413572578172	-13.27273531401598	-1.476825173418501	0	0	0	0
18.60000000000001	7.350383155352373	-0.9039384664250246	-30.0269129254716	0	0.95	0	-10.31078454997922	2.045591298201009	2.390663901311525	-35.69197249717073	-1.497745157205008	31.02886390747306	0	17.87720999421973	6.135928293991976	-1.329198371502116	-13.57761006886387	-11.19069219433892	-1.714848475401308	0	0	0	0
18.62500000000001	7.741042596162082	-0.5480572896943742	-30.14111171069815	0	0.95	0	-8.88248884967307	1.994306476640358	2.581386083863318	-38.99713433479405	-4.639295147625313	31.7715928976491	0	18.93256871287306	6.405436459059604	-0.9991945095432621	-16.57864104581065	-9.405471196050835	-1.941249872245507	0	0	0	0
18.65000000000001	8.115132850558732	-0.2395069038195939	-30.27748342504951	0	0.95	0	-7.266415280086323	2.085633259811989	2.980340927659848	-42.39493829966599	-7.559404182108532	31.61154008729274	0	19.8464744136403	6.777866345431681	-0.8437894266258112	-19.38804553108464	-7.450781956751739	-1.925718208912821	0	0	0	0
18.67500000000001	8.302817779261545	0.08751239815101022	-30.42613831008312	0	0.95	0	-5.469927071049578	2.114505764074778	2.989835526238815	-45.90392213742678	-9.083527959958236	31.23831955280445	0	20.40876999778167	7.070908508346832	-0.8890801787968797	-21.39054849366881	-5.988744771921008	-2.162660505455962	0	0	0	0
18.70000000000001	8.50796271766826	0.3572241722255448	-30.48905757500022	0	0.95	0	-4.023067988470368	1.818350007417586	2.26040842980767	-49.03132215364366	-8.691630415825147	30.45286643712979	0	20.15500449223048	7.290753885648012	-1.02174178177924	-22.24266433165354	-4.837153883987445	-2.227145022523492	0	0	0	0
18.725	8.609405386181573	0.5891742881427767	-30.50799486231585	0	0.95	0	-2.864619951112683	1.413700863189594	1.331421818752676	-51.18739550101284	-7.729702258711376	28.58595206220624	0	19.26092722166921	7.413804713230816	-0.8011990816761871	-22.36000161298402	-3.854271482156714	-2.366629074719572	0	0	0	0
18.75	8.709847268068312	0.7672991429689887	-30.43512125279647	0	0.95	0	-1.847088695590857	0.7633494692566815	0.3315861495799534	-52.81574270660375	-7.167829869079385	26.23175240119939	0	17.67999020312798	7.558381301911242	-0.2995877251302771	-21.69678565421368	-2.860943930193335	-2.241642251293274	0	0	0	0
18.775	8.760746887318483	0.8960437276461451	-30.29592300318046	0	0.95	0	-0.6879164501007703	-0.01779913013882639	-0.5131694602780725	-54.40045056957329	-6.833770558121412	24.15326846262689	0	15.8499834519236	7.839803020228002	0.1107628246833873	-20.65337076560717	-2.091007555534371	-2.325285854834447	0	0	0	0
18.8	8.778649059280921	0.9878543064482619	-30.12590602749332	0	0.95	0	0.6884471037211092	-0.8726949783159841	-1.326656635507399	-55.9844677286856	-6.237806003569601	22.45126663299532	0	14.03328390745131	8.073603177261594	0.3490672197444047	-19.52443001559698	-1.423030768328005	-2.42482016601078	0	0	0	0
18.825	8.758476611215798	1.041430831328121	-29.92550425882746	0	0.95	0	2.184187725028726	-1.650971503760872	-2.167729278925009	-57.28840056854744	-5.198002098640258	21.16260066818154	0	12.5122558704244	8.218668068055136	0.5985625233909464	-18.64316613389834	-0.8419893451896202	-2.553618783362338	0	0	0	0
18.85	8.693969878662637	1.066362058443854	-29.6206157285084	0	0.95	0	3.729347273363283	-2.258591867448213	-2.964728130831197	-58.17715070324411	-4.032148831901755	20.07914800904912	0	11.30767748490205	8.275989270015847	0.8479860429451295	-17.9698647404118	-0.3025372023772739	-2.598214619420478	0	0	0	0
18.875	8.591073250995299	1.060330482596848	-29.32320459325355	0	0.95	0	5.250177710464629	-2.582463654930709	-3.513884771722396	-58.49406299477554	-3.23120413255678	19.02081007291687	0	10.12270979530148	8.225160178451253	1.055113778483055	-17.28246825859231	0.2148681610560133	-2.503294711244977	0	0	0	0
18.9	8.482051025945422	1.028763423915101	-28.9169796825087	0	0.95	0	6.804658299862957	-2.742783012997752	-4.065315774816212	-58.52769738878448	-2.416277283375639	18.25888099816301	0	9.103780474335782	7.862272574069797	1.174154803244731	-16.69594354271802	0.6895398972728052	-1.955586498795315	0	0	0	0
18.92499999999999	8.321437536599472	0.9763861417228672	-28.45888250145921	0	0.95	0	8.344970848626327	-2.814265894790337	-4.565474391625144	-58.21493105357575	-1.353612100557609	17.72348011702874	0	8.297632575469885	7.57728121419215	1.467391612648268	-16.26721677507478	1.019653797405884	-1.68511003520794	0	0	0	0
18.94999999999999	8.204668176856847	0.9145439049628858	-28.01846847980616	0	0.95	0	9.75380087614273	-2.887303055089085	-4.963653831163223	-57.43845915362723	-0.4040146206748485	17.2244276753886	0	7.562301294780331	7.489587658216946	1.788414513349214	-15.87993168239003	1.294494667482969	-1.587612577251037	0	0	0	0
18.97499999999999	8.055740645864418	0.8214958765301477	-27.51032316177171	0	0.95	0	11.07854695430438	-2.908267815261839	-5.28149400590519	-56.25121167658323	0.3817217378908201	16.65151642904911	0	6.778282442090637	7.430226119479673	2.325421295190384	-15.42488266537698	1.461425576536469	-1.583628781862348	0	0	0	0
18.99999999999999	7.947634424399199	0.7069965152342264	-26.97218125743258	0	0.95	0	12.24036172990423	-2.938722013370523	-5.529263249761394	-54.66071454881012	0.9644615811877891	16.00091401145535	0	5.925602986942194	7.348194758481633	2.877293786071566	-14.91331506704081	1.567236015293401	-1.625598967727669	0	0	0	0
19.02499999999999	7.874096196541214	0.5451846109904719	-26.37925905109568	0	0.95	0	13.20430965905056	-2.979470822263372	-5.747140911670581	-52.65228074530054	1.506244959915096	15.27056913426412	0	4.957839177480234	7.248486251426383	3.572234452504092	-14.39819745455281	1.636575118239148	-1.729630353141401	0	0	0	0
19.04999999999999	7.812885552203902	0.3941212971906065	-25.77167505533021	0	0.95	0	14.09691465096704	-3.113990507583363	-5.941228147594853	-50.40248615905385	2.009958868679009	14.44848900128231	0	3.975652809238484	7.12199951552137	4.170620329377557	-13.86076360672562	1.728661497473842	-1.644603731382828	0	0	0	0
19.07499999999999	7.749181962773847	0.2413255076217216	-25.16216211897727	0	0.95	0	14.88887167317219	-3.302467045877992	-6.080360884175721	-47.84463487834264	2.410106264449916	13.52197659371104	0	2.948430520495819	6.993657130456517	4.865843286088133	-13.32691687292201	1.797028441601469	-1.634789426849158	0	0	0	0
